<svg width="18" height="14" viewBox="0 0 18 14" fill="none" xmlns="http://www.w3.org/2000/svg">
<path d="M2.94161 1.44187C4.04994 0.9252 5.24994 0.5502 6.49994 0.333533C6.5109 0.333183 6.52181 0.33524 6.53188 0.339559C6.54196 0.343878 6.55097 0.350356 6.55828 0.358534C6.70828 0.633534 6.88328 0.991867 6.99994 1.26687C8.32578 1.06687 9.67411 1.06687 10.9999 1.26687C11.1166 0.983534 11.2916 0.633534 11.4499 0.358534C11.4583 0.341867 11.4833 0.333534 11.5083 0.333534C12.7583 0.550201 13.9499 0.925201 15.0666 1.44187C15.0749 1.44187 15.0833 1.4502 15.0916 1.45853C17.3583 4.8502 17.9833 8.1502 17.6749 11.4169C17.6749 11.4335 17.6666 11.4502 17.6499 11.4585C16.1499 12.5585 14.7083 13.2252 13.2833 13.6669C13.2583 13.6752 13.2333 13.6669 13.2249 13.6502C12.8916 13.1919 12.5916 12.7085 12.3333 12.2002C12.3166 12.1669 12.3333 12.1335 12.3666 12.1252C12.8416 11.9419 13.2916 11.7252 13.7333 11.4752C13.7666 11.4585 13.7666 11.4085 13.7416 11.3835C13.6499 11.3169 13.5583 11.2419 13.4666 11.1752C13.4499 11.1585 13.4249 11.1585 13.4083 11.1669C10.5416 12.4752 7.44994 12.4752 4.61661 11.1669C4.59994 11.1585 4.57494 11.1585 4.55828 11.1752C4.46661 11.2502 4.37494 11.3169 4.28328 11.3919C4.24994 11.4169 4.24994 11.4669 4.29161 11.4835C4.72494 11.7419 5.18328 11.9502 5.65828 12.1335C5.69161 12.1419 5.69994 12.1835 5.69161 12.2085C5.42494 12.7169 5.12494 13.2002 4.79994 13.6585C4.77494 13.6669 4.74994 13.6752 4.72494 13.6669C3.29161 13.2252 1.84994 12.5585 0.349944 11.4585C0.333278 11.4502 0.324943 11.4335 0.324943 11.4169C-0.0417239 7.64187 0.933277 4.36687 2.90828 1.45853C2.91661 1.4502 2.92494 1.44187 2.94161 1.44187ZM11.8999 9.4252C12.7583 9.4252 13.4749 8.63353 13.4749 7.65853C13.4749 6.68353 12.7749 5.89187 11.8999 5.89187C11.0166 5.89187 10.3166 6.69187 10.3249 7.65853C10.3249 8.63353 11.0249 9.4252 11.8999 9.4252ZM6.09161 9.4252C6.94994 9.4252 7.66661 8.63353 7.66661 7.65853C7.66661 6.68353 6.96661 5.89187 6.09161 5.89187C5.20828 5.89187 4.50828 6.69187 4.51661 7.65853C4.51661 8.63353 5.20828 9.4252 6.09161 9.4252Z" fill="#ECF1F0"/>
</svg>
