<svg width="20" height="20" viewBox="0 0 20 20" fill="none" xmlns="http://www.w3.org/2000/svg">
<path d="M15.8333 7.49984C15.8333 6.4165 15.1333 5.49984 14.1666 5.14984L14.1666 1.6665L12.5 1.6665L12.5 5.14984C11.5333 5.49984 10.8333 6.4165 10.8333 7.49984C10.8333 8.58317 11.5333 9.49984 12.5 9.84984L12.5 12.4998C12.5 14.3415 11.0083 15.8332 9.16662 15.8332C7.32496 15.8332 5.83329 14.3415 5.83329 12.4998L5.83329 11.6665L8.33329 11.6665L4.16663 7.49984L4.16663 12.4998C4.16662 15.2582 6.40829 17.4998 9.16662 17.4998C11.925 17.4998 14.1666 15.2582 14.1666 12.4998L14.1666 9.84984C15.1333 9.49984 15.8333 8.58317 15.8333 7.49984ZM13.3333 8.33317C12.875 8.33317 12.5 7.95817 12.5 7.49984C12.5 7.0415 12.875 6.6665 13.3333 6.6665C13.7916 6.6665 14.1666 7.0415 14.1666 7.49984C14.1666 7.95817 13.7916 8.33317 13.3333 8.33317Z" fill="#ECF1F0"/>
</svg>
