<svg width="48" height="48" viewBox="0 0 48 48" fill="none" xmlns="http://www.w3.org/2000/svg">
<path d="M19.3333 12.2182L17.5556 13.9636L20.2222 16.5818C19.1111 17.2364 18.2222 18.3273 17.7778 19.6364H12.8889V21.8182H17.3333V24H12.8889V26.1818H17.3333V28.3636H12.8889V30.5455H17.7778C18.6667 33.1636 21.1111 34.9091 24 34.9091C26.8889 34.9091 29.3333 33.1636 30.2222 30.5455H35.1111V28.3636H30.6667V26.1818H35.1111V24H30.6667V21.8182H35.1111V19.6364H30.2222C29.7778 18.3273 28.8889 17.2364 27.7778 16.3636L30.4444 13.7455L28.8889 12.2182L25.7778 15.2727H24C23.5556 15.2727 22.8889 15.2727 22.4444 15.4909L19.3333 12.2182ZM21.7778 21.8182H26.2222V24H21.7778V21.8182ZM21.7778 26.1818H26.2222V28.3636H21.7778V26.1818ZM44 21.8182C44 33.8182 35.5556 45.1636 24 48C12.4444 45.1636 4 33.8182 4 21.8182V8.72727L24 0L44 8.72727V21.8182ZM24 43.6364C32.4444 41.4545 39.5556 31.6364 39.5556 22.2545V11.5636L24 4.8L8.44444 11.5636V22.2545C8.44444 31.6364 15.5556 41.4545 24 43.6364Z" fill="#ECF1F0"/>
</svg>
