<svg width="16" height="16" viewBox="0 0 16 16" fill="none" xmlns="http://www.w3.org/2000/svg">
<path d="M0.500001 10.4998L0.500001 8.83314L3.05833 8.83314C3.1 8.50814 3.15834 8.19147 3.24167 7.88314L1.09167 6.64147L1.925 5.19981L3.9 6.33314C4.13333 5.93314 4.41667 5.57481 4.725 5.25814C4.69167 5.06647 4.66667 4.87481 4.66667 4.66647C4.66667 3.99981 4.86667 3.37481 5.20833 2.84981L3.83333 1.47481L5.00833 0.299806L6.44167 1.73314C7.84167 0.991472 9.025 1.45814 9.55 1.73314L10.9917 0.299805L12.1667 1.47481L10.7917 2.84981C11.1447 3.38997 11.3329 4.02118 11.3333 4.66647C11.3333 4.8748 11.3083 5.06647 11.275 5.26647C11.5833 5.58314 11.8667 5.94147 12.1 6.33314L14.075 5.19147L14.9083 6.63314L12.7583 7.8748C12.8417 8.18314 12.9 8.4998 12.9417 8.8248L15.5 8.8248L15.5 10.4915L12.9417 10.4915C12.9 10.8165 12.8417 11.1331 12.7583 11.4415L14.9083 12.6831L14.075 14.1248L12.1 12.9998C11.2 14.5081 9.7 15.4998 8 15.4998C6.3 15.4998 4.8 14.5081 3.9 12.9998L1.925 14.1415L1.09167 12.6998L3.24167 11.4581C3.15834 11.1498 3.1 10.8331 3.05833 10.5081L0.500001 10.5081L0.500001 10.4998ZM7.16667 12.1665L8.83333 12.1665L8.83333 7.16647L7.16667 7.16647L7.16667 12.1665Z" fill="#ECF1F0"/>
</svg>
