<svg width="14" height="16" viewBox="0 0 14 16" fill="none" xmlns="http://www.w3.org/2000/svg">
<path d="M7.83333 5.1416C7.67684 5.1416 7.52188 5.17242 7.3773 5.23231C7.23272 5.2922 7.10135 5.37998 6.99069 5.49063C6.88004 5.60129 6.79226 5.73266 6.73237 5.87724C6.67249 6.02182 6.64166 6.17678 6.64166 6.33327C6.64166 6.48976 6.67249 6.64472 6.73237 6.7893C6.79226 6.93388 6.88004 7.06525 6.99069 7.1759C7.10135 7.28656 7.23272 7.37434 7.3773 7.43422C7.52188 7.49411 7.67684 7.52494 7.83333 7.52494C8.14938 7.52494 8.45248 7.39938 8.67597 7.1759C8.89945 6.95242 9.025 6.64932 9.025 6.33327C9.025 6.01722 8.89945 5.71411 8.67597 5.49063C8.45248 5.26715 8.14938 5.1416 7.83333 5.1416Z" fill="#ECF1F0"/>
<path d="M7.83331 0.499999C4.70831 0.5 2.16665 2.95 2.01665 6.03333L0.416647 8.16667C0.370219 8.22857 0.341947 8.30218 0.334997 8.37925C0.328048 8.45631 0.342697 8.5338 0.377303 8.60301C0.411908 8.67222 0.465103 8.73042 0.530926 8.7711C0.596749 8.81179 0.672601 8.83333 0.749981 8.83333L1.99998 8.83333L1.99998 11.3333C1.99998 12.25 2.74998 13 3.66665 13L4.49998 13L4.49998 15.5L10.3333 15.5L10.3333 11.6C11.5286 11.0318 12.495 10.0739 13.0739 8.8838C13.6528 7.69369 13.8098 6.34207 13.519 5.05097C13.2282 3.75987 12.507 2.60605 11.4737 1.77903C10.4405 0.952012 9.15676 0.500973 7.83331 0.499999ZM10.3333 6.33333C10.3333 6.44167 10.325 6.55 10.3166 6.65833L11.0083 7.20833C11.075 7.25833 11.0916 7.34167 11.05 7.41667L10.3833 8.575C10.3416 8.65 10.25 8.675 10.1833 8.65L9.35831 8.31667C9.18331 8.45 8.99998 8.55833 8.79998 8.64167L8.66665 9.525C8.65831 9.60833 8.58331 9.66667 8.49998 9.66667L7.16665 9.66667C7.08331 9.66667 7.01665 9.60833 6.99998 9.525L6.87498 8.64167C6.66665 8.55833 6.48331 8.45 6.30831 8.31667L5.48331 8.65C5.40831 8.675 5.31665 8.65 5.27498 8.575L4.60831 7.41667C4.58819 7.38295 4.58132 7.34297 4.58902 7.30447C4.59672 7.26598 4.61844 7.23171 4.64998 7.20833L5.34998 6.65833C5.34165 6.55 5.33331 6.44167 5.33331 6.33333C5.33331 6.225 5.34998 6.10833 5.36665 6.00833L4.65831 5.45833C4.59165 5.40833 4.57498 5.325 4.61665 5.24167L5.28331 4.09167C5.32498 4.01667 5.40831 3.99167 5.48331 4.01667L6.31665 4.35C6.48331 4.225 6.67498 4.10833 6.87498 4.025L6.99998 3.14167C7.01665 3.05833 7.08331 3 7.16665 3L8.49998 3C8.58331 3 8.64998 3.05833 8.66665 3.14167L8.79165 4.025C8.99165 4.10833 9.17498 4.21667 9.34998 4.35L10.1833 4.01667C10.2583 3.99167 10.35 4.01667 10.3833 4.09167L11.05 5.24167C11.0706 5.27665 11.0778 5.31798 11.0701 5.35788C11.0625 5.39778 11.0405 5.4335 11.0083 5.45833L10.3 6.00833C10.325 6.10833 10.3333 6.21667 10.3333 6.33333Z" fill="#ECF1F0"/>
</svg>
