<svg width="20" height="20" viewBox="0 0 20 20" fill="none" xmlns="http://www.w3.org/2000/svg">
<path d="M3.33335 5.8335V7.50016C3.33335 7.9585 2.95835 8.3335 2.50002 8.3335H1.66669V11.6668H2.50002C2.95835 11.6668 3.33335 12.0418 3.33335 12.5002V14.1668C3.33335 15.5418 4.45835 16.6668 5.83335 16.6668H8.33335V15.0002H5.83335C5.37502 15.0002 5.00002 14.6252 5.00002 14.1668V12.5002C5.00002 11.4168 4.30002 10.4835 3.33335 10.1418V9.8585C4.30002 9.51683 5.00002 8.5835 5.00002 7.50016V5.8335C5.00002 5.37516 5.37502 5.00016 5.83335 5.00016H8.33335V3.3335H5.83335C4.45835 3.3335 3.33335 4.4585 3.33335 5.8335ZM17.5 8.3335C17.0417 8.3335 16.6667 7.9585 16.6667 7.50016V5.8335C16.6667 4.4585 15.5417 3.3335 14.1667 3.3335H11.6667V5.00016H14.1667C14.625 5.00016 15 5.37516 15 5.8335V7.50016C15 8.5835 15.7 9.51683 16.6667 9.8585V10.1418C15.7 10.4835 15 11.4085 15 12.5002V14.1668C15 14.6252 14.625 15.0002 14.1667 15.0002H11.6667V16.6668H14.1667C15.5417 16.6668 16.6667 15.5418 16.6667 14.1668V12.5002C16.6667 12.0418 17.0417 11.6668 17.5 11.6668H18.3334V8.3335H17.5Z" fill="#ECF1F0"/>
</svg>
